<svg width="64" height="64" viewBox="0 0 64 64" fill="none" xmlns="http://www.w3.org/2000/svg">
<path d="M32 64C49.6731 64 64 49.6731 64 32C64 14.3269 49.6731 0 32 0C14.3269 0 0 14.3269 0 32C0 49.6731 14.3269 64 32 64Z" fill="#13B900"/>
<path d="M41.4776 22.1132C40.0824 18.1844 36.2592 17.7012 31.762 18.4106L30.3655 12.8272L26.956 13.675L28.3159 19.1112C27.4195 19.3339 26.5078 19.5793 25.6019 19.8236L24.2337 14.351L20.8261 15.1978L22.221 20.7799C21.4868 20.9784 20.7651 21.1724 20.0584 21.3484L20.0536 21.331L15.3506 22.4979L16.2594 26.1276C16.2594 26.1276 18.7653 25.4542 18.7349 25.5105C20.1159 25.1677 20.7654 25.8553 21.0689 26.5124L22.66 32.8731C22.7553 32.8498 22.8806 32.8228 23.0264 32.8073C22.9127 32.8357 22.7913 32.8652 22.6663 32.8975L24.8941 41.8085C24.942 42.2567 24.8594 43.0112 23.8948 43.2525C23.9482 43.2801 21.4162 43.8678 21.4162 43.8678L21.7537 48.0951L26.1909 46.9923C27.017 46.7883 27.8329 46.6004 28.6319 46.4068L30.0458 52.0535L33.4519 51.2076L32.0541 45.6203C32.9942 45.4072 33.9009 45.1897 34.7845 44.9694L36.1739 50.5313L39.5836 49.6834L38.1746 44.0462C43.825 42.2939 47.477 39.8577 46.633 34.368C45.9545 29.9476 43.4336 28.5265 39.985 28.5562C41.711 27.0614 42.5048 24.9865 41.4789 22.113L41.4776 22.1128L41.4776 22.1132ZM39.7273 35.3732C40.7846 39.5928 33.4154 40.9143 31.1051 41.4907L29.2347 34.0084C31.5462 33.4347 38.6267 30.9714 39.7274 35.3731L39.7273 35.3732ZM35.5012 25.2111C36.4605 29.0507 30.3028 30.1051 28.378 30.5835L26.6811 23.7977C28.6059 23.3193 34.4994 21.2069 35.5014 25.211L35.5012 25.2111Z" fill="white"/>
<path d="M32 63C14.8792 63 1 49.1208 1 32H-1C-1 50.2254 13.7746 65 32 65V63ZM63 32C63 49.1208 49.1208 63 32 63V65C50.2254 65 65 50.2254 65 32H63ZM32 1C49.1208 1 63 14.8792 63 32H65C65 13.7746 50.2254 -1 32 -1V1ZM32 -1C13.7746 -1 -1 13.7746 -1 32H1C1 14.8792 14.8792 1 32 1V-1Z" fill="black" fill-opacity="0.08"/>
</svg>
