<svg width="65" height="65" viewBox="0 0 65 65" fill="none" xmlns="http://www.w3.org/2000/svg">
<path d="M64.0419 39.7514C59.7674 56.8973 42.4014 67.3319 25.2535 63.0563C8.11282 58.7817 -2.32181 41.4147 1.9546 24.2702C6.22726 7.12249 23.5932 -3.31292 40.7358 0.961614C57.8825 5.23615 68.3165 22.6051 64.0414 39.7517L64.0418 39.7514H64.0419Z" fill="#F7931A"/>
<path d="M47.1548 27.4026C47.7919 23.1434 44.5492 20.8539 40.1151 19.3266L41.5536 13.5571L38.0415 12.682L36.6412 18.2995C35.7179 18.0693 34.7697 17.8523 33.8273 17.6372L35.2378 11.9825L31.7279 11.1074L30.2887 16.875C29.5247 16.7011 28.7742 16.5291 28.0461 16.348L28.0502 16.3298L23.207 15.1204L22.2728 18.8715C22.2728 18.8715 24.8784 19.4688 24.8235 19.5055C26.2457 19.8605 26.5029 20.8019 26.4602 21.5482L24.8216 28.1209C24.9196 28.1458 25.0466 28.1818 25.1868 28.2381C25.0696 28.209 24.9449 28.1773 24.8155 28.1463L22.5188 37.3538C22.345 37.7859 21.9039 38.4343 20.9096 38.1881C20.9448 38.2391 18.357 37.5511 18.357 37.5511L16.6133 41.5712L21.1836 42.7106C22.0339 42.9238 22.8671 43.1469 23.6876 43.3567L22.2343 49.1923L25.7423 50.0674L27.1815 44.2937C28.1399 44.5539 29.0699 44.7939 29.9804 45.0201L28.546 50.7666L32.0582 51.6417L33.5113 45.817C39.5001 46.9504 44.0032 46.4934 45.8986 41.0766C47.426 36.7154 45.8226 34.1998 42.6719 32.5594C44.9667 32.0302 46.6952 30.5209 47.1561 27.403L47.155 27.4023L47.1548 27.4026ZM39.1306 38.6546C38.0453 43.0158 30.7023 40.6583 28.3216 40.0671L30.2502 32.3359C32.6307 32.9302 40.265 34.1063 39.1308 38.6546H39.1306ZM40.2168 27.3394C39.2267 31.3063 33.1151 29.2909 31.1325 28.7968L32.881 21.785C34.8636 22.2792 41.2482 23.2016 40.2171 27.3394H40.2168Z" fill="white"/>
<path d="M33 63C15.8792 63 2 49.1208 2 32H0C0 50.2254 14.7746 65 33 65V63ZM64 32C64 49.1208 50.1208 63 33 63V65C51.2254 65 66 50.2254 66 32H64ZM33 1C50.1208 1 64 14.8792 64 32H66C66 13.7746 51.2254 -1 33 -1V1ZM33 -1C14.7746 -1 0 13.7746 0 32H2C2 14.8792 15.8792 1 33 1V-1Z" fill="black" fill-opacity="0.08"/>
</svg>
