<svg width="64" height="64" viewBox="0 0 64 64" fill="none" xmlns="http://www.w3.org/2000/svg">
<path d="M32 64C49.6731 64 64 49.6731 64 32C64 14.3269 49.6731 0 32 0C14.3269 0 0 14.3269 0 32C0 49.6731 14.3269 64 32 64Z" fill="#C2A633"/>
<path d="M14.9336 34.1188C14.9336 32.7402 14.9336 31.4126 14.9336 30.068C15.0528 30.068 15.1551 30.051 15.2573 30.051C16.4668 30.051 17.6763 30.051 18.8858 30.051C19.2606 30.051 19.2606 30.051 19.2606 29.6766C19.2606 24.5025 19.2606 19.3285 19.2606 14.1545C19.2606 14.0013 19.2776 13.8481 19.2776 13.6779C19.3969 13.6779 19.4991 13.6609 19.6013 13.6609C23.4343 13.6609 27.2502 13.6439 31.0831 13.6609C33.7407 13.6779 36.33 14.1204 38.8172 15.0735C40.674 15.7884 42.3435 16.7755 43.8086 18.1201C45.2906 19.4817 46.432 21.0986 47.2667 22.9367C48.0163 24.5876 48.4933 26.3237 48.7488 28.1278C48.8851 29.0979 49.0044 30.0681 49.0214 31.0552C49.0384 31.8892 49.0895 32.7061 49.0555 33.5401C48.9703 35.8888 48.6296 38.2036 47.8289 40.4161C46.9942 42.7308 45.7336 44.7732 43.8937 46.4412C42.4798 47.7347 40.8614 48.6878 39.0727 49.3516C37.7099 49.8622 36.296 50.2026 34.848 50.3898C34.0303 50.4919 33.2296 50.56 32.3949 50.56C28.2553 50.543 24.1327 50.543 19.9931 50.5259C19.7716 50.5259 19.5672 50.5259 19.3287 50.5259C19.3117 50.4408 19.2776 50.3728 19.2776 50.3047C19.2606 50.2026 19.2776 50.0834 19.2776 49.9813C19.2776 44.8753 19.2776 39.7694 19.2776 34.6634C19.2776 34.0337 19.3457 34.1188 18.7154 34.1188C17.5741 34.1188 16.4497 34.1188 15.3084 34.1188C15.1891 34.1188 15.0699 34.1188 14.9336 34.1188ZM26.3132 34.1358C26.3132 34.272 26.3132 34.3741 26.3132 34.4762C26.3132 36.6037 26.3132 38.7312 26.3132 40.8587C26.3132 41.6586 26.3132 42.4755 26.3132 43.2755C26.3132 43.6159 26.3133 43.6159 26.671 43.6159C26.688 43.6159 26.705 43.6159 26.7221 43.6159C28.2552 43.6159 29.7884 43.6159 31.3216 43.6159C31.8497 43.6159 32.3778 43.5989 32.9059 43.5478C34.1154 43.4457 35.2909 43.1563 36.3982 42.6798C38.1869 41.9139 39.6008 40.7055 40.5889 39.0205C41.4918 37.4717 41.8836 35.7527 42.0369 33.9826C42.105 33.2167 42.105 32.4679 42.071 31.702C42.0199 30.851 41.9347 30 41.7814 29.166C41.5088 27.7533 41.0148 26.4258 40.2482 25.2004C39.0557 23.3282 37.3692 22.0517 35.2909 21.2858C34.0643 20.8263 32.7867 20.5369 31.4579 20.5199C29.8395 20.5029 28.2042 20.5029 26.5858 20.5029C26.3473 20.5029 26.3303 20.5199 26.3303 20.7752C26.3303 23.7707 26.3303 26.7662 26.3303 29.7617C26.3303 29.8298 26.3473 29.8979 26.3643 30C28.9026 30 31.4238 30 33.9621 30C33.9791 30.1361 33.9962 30.2212 33.9962 30.3233C33.9962 31.4637 33.9962 32.604 33.9962 33.7614C33.9962 33.8635 33.9621 33.9656 33.9451 34.0847C33.417 34.0847 32.9059 34.0847 32.3949 34.0847C31.9008 34.0847 31.3898 34.0847 30.8957 34.0847C30.3847 34.0847 29.8736 34.0847 29.3625 34.0847C28.8685 34.0847 28.3575 34.0847 27.8635 34.0847C27.3524 34.1188 26.8413 34.0847 26.3132 34.1358Z" fill="white"/>
<path d="M32 63C14.8792 63 1 49.1208 1 32H-1C-1 50.2254 13.7746 65 32 65V63ZM63 32C63 49.1208 49.1208 63 32 63V65C50.2254 65 65 50.2254 65 32H63ZM32 1C49.1208 1 63 14.8792 63 32H65C65 13.7746 50.2254 -1 32 -1V1ZM32 -1C13.7746 -1 -1 13.7746 -1 32H1C1 14.8792 14.8792 1 32 1V-1Z" fill="black" fill-opacity="0.08"/>
</svg>
