<svg width="64" height="64" viewBox="0 0 64 64" fill="none" xmlns="http://www.w3.org/2000/svg">
<path d="M32 64C49.6731 64 64 49.6731 64 32C64 14.3269 49.6731 0 32 0C14.3269 0 0 14.3269 0 32C0 49.6731 14.3269 64 32 64Z" fill="#A0A0A0"/>
<path d="M21.077 38.1816C20.9943 38.1485 20.9281 38.1816 20.862 38.2147C19.7868 38.6119 18.7117 39.0092 17.6365 39.4064C17.5373 39.4395 17.4215 39.5554 17.3223 39.4726C17.223 39.3899 17.3223 39.2575 17.3554 39.1581C17.7192 37.7513 18.0997 36.3444 18.4636 34.9375C18.5132 34.7388 18.629 34.6726 18.7944 34.6064C19.9192 34.1926 21.0274 33.7788 22.1521 33.3816C22.3506 33.3154 22.4333 33.2161 22.4995 33.0009C23.31 29.9388 24.1205 26.8768 24.931 23.8147C25.6257 21.2326 26.3038 18.634 26.9985 16.0519C27.0647 15.7871 27.0647 15.7871 27.3459 15.7871C30.5052 15.7871 33.681 15.7871 36.8402 15.7871C37.1545 15.7871 37.1545 15.7871 37.0718 16.1016C36.4929 18.303 35.914 20.4878 35.3185 22.6892C34.7726 24.725 34.2433 26.7609 33.6975 28.7968C33.6644 28.9126 33.5652 29.045 33.6644 29.1278C33.7471 29.194 33.8795 29.0947 33.9787 29.045C35.4177 28.5154 36.8568 27.9857 38.2958 27.4726C38.3289 27.4561 38.362 27.4395 38.395 27.4395C38.5274 27.4064 38.577 27.4561 38.5439 27.5885C38.4943 27.8202 38.4281 28.0354 38.362 28.2671C38.0312 29.4919 37.7003 30.7168 37.3861 31.9416C37.3364 32.1071 37.2703 32.2064 37.1049 32.2726C35.9636 32.6864 34.8223 33.1002 33.681 33.5306C33.3005 33.663 32.9366 33.8119 32.5562 33.9444C32.3742 34.0106 32.2916 34.1099 32.2419 34.2919C32.06 35.0202 31.8615 35.7485 31.663 36.4933C31.1999 38.2312 30.7367 39.9692 30.2736 41.7071C30.2571 41.7568 30.2405 41.8064 30.2405 41.8561C30.224 41.9554 30.2736 42.005 30.3728 42.005C30.4555 42.005 30.5548 42.005 30.6375 42.005C35.9305 42.005 41.2235 42.005 46.533 42.005C46.9962 42.005 46.9796 41.9719 46.8638 42.4188C46.3511 44.3388 45.8383 46.2423 45.3256 48.1623C45.2594 48.4271 45.2594 48.4271 44.9782 48.4271C36.2282 48.4271 27.4782 48.4271 18.7282 48.4271C18.414 48.4271 18.414 48.4271 18.4967 48.1126C19.3237 44.9843 20.1673 41.8395 20.9943 38.7112C20.9943 38.5292 21.0605 38.3637 21.077 38.1816Z" fill="white"/>
<path d="M32 63C14.8792 63 1 49.1208 1 32H-1C-1 50.2254 13.7746 65 32 65V63ZM63 32C63 49.1208 49.1208 63 32 63V65C50.2254 65 65 50.2254 65 32H63ZM32 1C49.1208 1 63 14.8792 63 32H65C65 13.7746 50.2254 -1 32 -1V1ZM32 -1C13.7746 -1 -1 13.7746 -1 32H1C1 14.8792 14.8792 1 32 1V-1Z" fill="black" fill-opacity="0.08"/>
</svg>
