<svg width="64" height="64" viewBox="0 0 64 64" fill="none" xmlns="http://www.w3.org/2000/svg">
<path d="M64 31.9973C64 49.6683 49.6743 63.9944 32 63.9944C14.3257 63.9944 0 49.6683 0 31.9973C0 14.3263 14.326 0 32 0C49.674 0 64 14.3249 64 31.9973Z" fill="white"/>
<path d="M32.0025 0C14.3345 0 -0.0166062 14.3465 0.00588578 31.9963C0.010316 35.5275 0.573468 38.9242 1.63042 42.1015H11.2045V15.1846L32.0025 35.98L52.7994 15.1846V42.102H62.3756C63.434 38.9249 63.9943 35.5281 64.0006 31.9968C64.0308 14.3286 49.6723 0.00425936 32.0025 0.00425936V0Z" fill="#F26822"/>
<path d="M27.2199 40.7602L18.1435 31.6846V48.6218H11.2043L4.65625 48.623C10.2729 57.8367 20.4236 64 32.0028 64C43.582 64 53.7332 57.8353 59.3509 48.6216H45.86V31.6846L36.7832 40.7602L32.0018 45.541L27.2202 40.7602H27.2199Z" fill="#4D4D4D"/>
<path d="M32 63C14.8792 63 1 49.1208 1 32H-1C-1 50.2254 13.7746 65 32 65V63ZM63 32C63 49.1208 49.1208 63 32 63V65C50.2254 65 65 50.2254 65 32H63ZM32 1C49.1208 1 63 14.8792 63 32H65C65 13.7746 50.2254 -1 32 -1V1ZM32 -1C13.7746 -1 -1 13.7746 -1 32H1C1 14.8792 14.8792 1 32 1V-1Z" fill="black" fill-opacity="0.08"/>
</svg>
