<svg xmlns="http://www.w3.org/2000/svg" width="225" height="35" fill="none" xmlns:v="https://vecta.io/nano"><path d="M61.496 22.606l1.364 2.172c-1.388 1.872-3.458 2.808-6.21 2.808-2.584 0-4.678-.799-6.281-2.396C48.79 23.592 48 21.457 48 18.786c0-2.471.778-4.556 2.333-6.253s3.506-2.546 5.851-2.546c2.824 0 4.941.736 6.353 2.209l-1.328 2.359c-1.244-1.173-2.788-1.76-4.63-1.76-1.508 0-2.812.574-3.912 1.722-1.077 1.123-1.615 2.546-1.615 4.269 0 1.822.55 3.27 1.651 4.344 1.125 1.098 2.512 1.648 4.164 1.648 1.867 0 3.41-.724 4.63-2.172zm7.979 4.606h-2.872V1h2.872v11.308c1.436-1.498 3.194-2.247 5.276-2.247 4.475 0 6.712 2.496 6.712 7.489v9.661h-2.872v-9.249c0-3.395-1.507-5.093-4.522-5.093-.838 0-1.687.2-2.549.599-.838.399-1.52.911-2.046 1.535v12.207zm17.689-13.293l-.754-2.396c1.603-1.023 3.398-1.535 5.384-1.535 2.177 0 3.757.562 4.738 1.685s1.472 2.858 1.472 5.205v10.335h-2.728V25.04c-1.268 1.623-2.991 2.434-5.169 2.434-1.484 0-2.68-.462-3.589-1.386-.909-.949-1.364-2.222-1.364-3.819 0-1.648.562-2.946 1.687-3.894 1.125-.974 2.596-1.46 4.415-1.46 1.699 0 3.039.362 4.02 1.086 0-1.897-.251-3.258-.754-4.081s-1.472-1.236-2.907-1.236c-1.46 0-2.943.412-4.451 1.236zm3.948 10.859c1.603 0 2.991-.724 4.164-2.172v-2.134c-1.005-.749-2.214-1.123-3.625-1.123-.981 0-1.807.25-2.477.749-.646.474-.969 1.148-.969 2.022 0 .824.251 1.473.754 1.947.526.474 1.244.711 2.154.711zm14.572 2.434h-2.872v-16.85h2.872v2.06c.598-.699 1.375-1.261 2.333-1.685.981-.449 1.962-.674 2.943-.674 4.475 0 6.712 2.471 6.712 7.414v9.736H114.8v-9.174c0-3.445-1.519-5.167-4.558-5.167-1.819 0-3.338.724-4.558 2.172v12.17zm14.602 2.434c0-1.298.455-2.384 1.364-3.258s2.178-1.498 3.804-1.872c-.262-.349-.394-.811-.394-1.385s.143-1.049.43-1.423c-1.148-.474-2.046-1.198-2.692-2.172-.621-.974-.933-2.097-.933-3.37 0-1.747.599-3.208 1.795-4.381 1.22-1.198 2.824-1.797 4.81-1.797 1.531 0 2.895.412 4.091 1.236l4.738-1.198.072 2.434-3.051.786c.503.874.754 1.847.754 2.921a5.78 5.78 0 0 1-1.831 4.344c-1.196 1.148-2.788 1.723-4.773 1.723-.55 0-.909-.012-1.077-.038-.12.3-.18.612-.18.936 0 .449.108.824.323 1.123h.431c.263-.025.442-.037.538-.037 2.513 0 4.511.474 5.995 1.423 1.483.924 2.225 2.259 2.225 4.007 0 1.697-.742 3.008-2.225 3.932-1.484.949-3.482 1.423-5.995 1.423-2.536 0-4.547-.462-6.03-1.386-1.46-.899-2.189-2.222-2.189-3.969zm13.747 0c0-.924-.491-1.66-1.472-2.209-.98-.524-2.333-.786-4.056-.786s-3.075.262-4.056.786c-.98.549-1.471 1.286-1.471 2.209s.491 1.635 1.471 2.134c.981.524 2.334.786 4.056.786s3.076-.25 4.056-.749 1.472-1.223 1.472-2.172zm-9.476-13.48c0 1.049.359 1.922 1.077 2.621.742.674 1.687 1.011 2.836 1.011s2.081-.337 2.799-1.011c.742-.674 1.113-1.548 1.113-2.621s-.359-1.96-1.077-2.659c-.742-.724-1.687-1.086-2.835-1.086s-2.094.362-2.836 1.086c-.718.699-1.077 1.585-1.077 2.659zm28.433 6.852l.897 2.359c-1.555 1.473-3.578 2.209-6.066 2.209-2.631 0-4.726-.799-6.281-2.396-1.579-1.598-2.369-3.732-2.369-6.403 0-2.521.742-4.618 2.225-6.291 1.46-1.673 3.494-2.509 6.102-2.509 2.154 0 3.937.724 5.348 2.172 1.436 1.423 2.154 3.27 2.154 5.542a10.8 10.8 0 0 1-.179 2.022h-12.42c.12 1.573.682 2.808 1.687 3.707 1.03.899 2.345 1.348 3.949 1.348 2.106 0 3.757-.587 4.953-1.76zm-5.635-10.222c-1.412 0-2.585.412-3.518 1.236-.909.824-1.447 1.91-1.615 3.258h9.799c-.072-1.398-.527-2.496-1.364-3.295-.814-.799-1.914-1.198-3.302-1.198z" fill="#fff"/><path d="M160.884 27.62H158V1h2.884v11.485a7.02 7.02 0 0 1 5.301-2.282c4.495 0 6.742 2.535 6.742 7.606v9.811h-2.884v-9.393c0-3.448-1.515-5.172-4.543-5.172-.841 0-1.695.203-2.56.608-.841.406-1.526.925-2.056 1.559V27.62zm29.704-4.259l.902 2.396c-1.562 1.496-3.594 2.244-6.094 2.244-2.643 0-4.748-.811-6.31-2.434-1.586-1.623-2.379-3.79-2.379-6.503 0-2.561.745-4.69 2.235-6.389 1.467-1.699 3.509-2.548 6.13-2.548 2.163 0 3.954.735 5.372 2.206 1.442 1.445 2.163 3.321 2.163 5.628 0 .735-.06 1.42-.18 2.053h-12.475c.119 1.597.685 2.852 1.694 3.765 1.034.913 2.356 1.369 3.967 1.369 2.115 0 3.774-.596 4.975-1.787zm-5.661-10.382c-1.417 0-2.596.418-3.533 1.255-.913.837-1.454 1.939-1.623 3.309h9.844c-.072-1.42-.529-2.535-1.37-3.347-.818-.811-1.923-1.217-3.318-1.217zm14.478 14.641h-2.884V10.507h2.884v2.016c.962-1.546 2.319-2.32 4.075-2.32 1.129 0 1.971.216 2.524.646l-1.01 2.852a4.12 4.12 0 0 0-2.199-.646c-1.467 0-2.596.811-3.39 2.434V27.62zm10.668-2.13c-1.587-1.724-2.38-3.866-2.38-6.427 0-2.586.793-4.716 2.38-6.389 1.609-1.699 3.701-2.548 6.274-2.548s4.651.849 6.237 2.548c1.61 1.673 2.416 3.803 2.416 6.389s-.806 4.728-2.416 6.427c-1.586 1.673-3.666 2.51-6.237 2.51-2.549 0-4.64-.837-6.274-2.51zm2.271-10.8c-1.058 1.116-1.586 2.573-1.586 4.373s.516 3.258 1.55 4.373c1.057 1.141 2.403 1.711 4.039 1.711s2.968-.558 4.002-1.673c1.057-1.141 1.586-2.611 1.586-4.411 0-1.749-.529-3.207-1.586-4.373-1.034-1.141-2.368-1.711-4.002-1.711s-2.97.57-4.003 1.711z" fill="#18258f"/><g fill="#03578c"><path d="M27.783 19.327l-7.752 9.923-.866-6.927-5.11-.552 13.729-2.443z"/><path d="M19.923 17.371l-5.868 4.398 1.213-11.495 4.656 7.097z"/></g><path d="M19.792 17.35l-4.526-7.076 4.288.977.238 6.098z" fill="#0099f7"/><path d="M34.387 21.239h-.022l-1.191 8.032H20.03v-.021l7.752-9.923 6.605 1.912z" fill="#28adff"/><path d="M14.054 21.77l5.782-4.335-.043-.085 7.991 1.976-13.729 2.444z" fill="#0099f7"/><g fill="#0474ba"><path d="M23.062 15.119l-3.14 2.252-.13-.021-.238-6.098 8.121 1.891.022-.021.693 2.486-5.327-.489z"/><path d="M39 20.793l-4.612.446-6.605-1.912.39-.127-5.089-4.08 10.936 3.995 2.144.807.476-.489-.736-3.315-2.512-.042-4.158-.383 3.183-1.275 3.746 1.339.281-6.077.26.085L39 20.793z"/></g><path d="M36.64 19.433l-.476.489-2.144-.807-.628-3.038 2.512.043.736 3.315z" fill="#03578c"/><path d="M27.956 2.54l-2.49.616-2.923 1.317.043-1.721L27.285.012l.671 2.529z" fill="#49484d"/><path d="M29.212 7.279l-6.735-.042.065-2.762 2.923-1.317 2.49-.616 1.256 4.738z" fill="#ffb536"/><path d="M15.267 10.339L5.868 29.42h-.022L0 30.929l15.267-20.59z" fill="#ffc767"/><path d="M15.31 10.274L14.054 21.77l-5.674 9.158-2.512-1.509 9.398-19.081.043-.064z" fill="#ffb536"/><path d="M17.584 22.153L14.4 30.121l-6.02.807 5.674-9.158 3.53.382z" fill="#ffc767"/><path d="M20.031 29.271l-.65 2.741-4.937-1.891H14.4l3.183-7.968 1.581.17.866 6.948zm7.643-16.128L15.31 10.275l7.168-3.038h.108l4.114 4.76.974 1.147z" fill="#ffb536"/><path d="M36.228 9.616h-.022l-8.532 3.527-.975-1.147 3.876-4.313 5.652 1.934z" fill="#ffc767"/><path d="M30.576 7.683L26.7 11.996l-4.223-4.76 6.735.042 1.343.404h.022z" fill="#03578c"/><path d="M36.207 9.616l-1.234 2.571-2.534 2.231h-.022l-3.183 1.275-.844-.085-.715-2.465 8.51-3.506.022-.021z" fill="#0099f7"/><path d="M28.172 19.199l-.39.128-7.839-1.934-.022-.021 3.162-2.252 5.089 4.08z" fill="#03578c"/><path d="M34.02 19.114l-10.936-3.995h-.022l5.327.489.845.085 4.158.382.628 3.039z" fill="#0099f7"/><path d="M36.445 9.68l-.282 6.077-3.746-1.339h.022l2.534-2.231 1.234-2.571h.022l.217.064z" fill="#03578c"/></svg>