<svg xmlns="http://www.w3.org/2000/svg" viewBox="0 0 107.8 23.6" xmlns:v="https://vecta.io/nano"><path d="M9.7 20.2c1.5 0 2.3-.5 2.3-1.5v-3.1H8v-3.1h9.3v6.7c0 1.3-.7 2.3-2 3-1.2.7-2.7 1.1-4.5 1.1H6.5c-2.8 0-4.8-.8-5.9-2.4-.4-.5-.6-1.1-.6-1.7V4.3c0-1.3.6-2.2 1.9-3S4.7.1 6.5.1h4.3c1.8 0 3.3.4 4.6 1.1s1.9 1.7 1.9 3v3.1H12V4.8c0-1-.8-1.5-2.3-1.5H7.5c-1.5 0-2.2.5-2.2 1.5v13.8c0 1 .8 1.5 2.3 1.5h2.1zm21.4 0c1.5 0 2.2-.5 2.2-1.5V4.8c0-1-.7-1.5-2.2-1.5h-2.4c-1.5 0-2.3.5-2.3 1.5v13.8c0 1 .8 1.5 2.3 1.5h2.4zM21.2 4.3c0-1.3.6-2.2 1.9-3S25.9.1 27.7.1h4.5c2.8 0 4.8.8 5.9 2.4.4.5.5 1.1.5 1.8v14.8c0 1.3-.6 2.3-1.9 3-1.2.7-2.8 1.1-4.6 1.1h-4.5c-2.8 0-4.8-.8-5.9-2.4-.4-.5-.5-1.1-.5-1.8V4.3zm31.1 15.9c1.5 0 2.3-.5 2.3-1.5V4.8c0-1-.8-1.5-2.3-1.5h-4.2v16.9h4.2zm1.1-20c1.8 0 3.3.4 4.5 1.1 1.3.7 1.9 1.7 1.9 3v14.8c0 1.3-.7 2.3-2 3-1.2.7-2.7 1.1-4.4 1.1H42.9V.2h10.5zm15 3.1v6.2h8.2v3.1h-8.2v7.6h10.4v.3l-2.1 2.8H63.1V.2h15.7v3.1zm23 .8L87.7 9 81.3.2h7.3zm14.1 19.2h-7.3l-2.5-3.4 3.8-4.8z" fill="#fff"/><linearGradient id="A" gradientUnits="userSpaceOnUse" x1="93.671" y1="-5.899" x2="93.671" y2="23.715"><stop offset="0" stop-color="#24befc"/><stop offset="1" stop-color="#1265e7"/></linearGradient><path d="M105.6 2.4l1.7-2.2h-2.7-3.6c-1.9 0-3.7.9-4.9 2.5L81.8 21.3l-1.7 2.2h2.7 3.6c1.9 0 3.7-.9 4.9-2.5l14.3-18.6z" fill="url(#A)"/></svg>