<svg fill="none" height="40" viewBox="0 0 254 40" width="254" xmlns="http://www.w3.org/2000/svg" xmlns:xlink="http://www.w3.org/1999/xlink"><linearGradient id="a" gradientUnits="userSpaceOnUse" x1="12.2754" x2="12.2754" y1="0" y2="40"><stop offset=".39361" stop-color="#eaedfb"/><stop offset="1" stop-color="#eaedfb" stop-opacity="0"/></linearGradient><linearGradient id="b" gradientUnits="userSpaceOnUse" x1="46.6609" x2="46.6609" y1="5.82886" y2="33.5058"><stop offset="0" stop-color="#eaedfb" stop-opacity="0"/><stop offset=".540292" stop-color="#eaedfb"/></linearGradient><clipPath id="c"><path d="m0 0h254v40h-254z"/></clipPath><g clip-path="url(#c)"><g fill="#eaedfb"><path d="m126.02 28.5858v-19.42078h14.887v3.49578h-10.875v4.439h7.167v3.3847h-7.167v4.6056h10.986v3.4957z"/><path d="m141.839 28.5871 5.534-7.3521-5.395-7.1025h4.399l3.183 4.3003 3.155-4.3003h4.26l-5.312 7.047 5.645 7.4076h-4.428l-3.403-4.6055-3.404 4.6055z"/><path d="m164.445 25.5344c.645 0 1.244-.1295 1.798-.3884.572-.259 1.116-.6659 1.633-1.2208l2.268 2.3582c-.737.8138-1.622 1.452-2.655 1.9144-1.033.4439-2.104.6659-3.211.6659-1.051 0-2.047-.1943-2.988-.5827-.922-.3884-1.725-.9155-2.407-1.5814-.665-.6659-1.191-1.4519-1.578-2.3582-.387-.9248-.581-1.9144-.581-2.9686 0-1.0543.194-2.0346.581-2.9409.387-.9248.913-1.7201 1.578-2.386.682-.6843 1.485-1.2207 2.407-1.6091.941-.3885 1.937-.5827 2.988-.5827 1.144 0 2.242.2312 3.294.6936 1.05.4439 1.946 1.0728 2.683 1.8866l-2.324 2.4692c-.516-.5733-1.07-1.008-1.66-1.3039-.591-.2959-1.226-.4439-1.909-.4439-1.089 0-2.011.4069-2.768 1.2207-.737.8139-1.107 1.8126-1.107 2.9964s.379 2.1732 1.135 2.9686c.775.7953 1.716 1.193 2.823 1.193z"/><path d="m172.115 28.5864v-19.42077l3.792-.83232v6.93599c.554-.4624 1.163-.8138 1.826-1.0543.683-.2404 1.42-.3606 2.214-.3606 1.661 0 3.025.5364 4.096 1.6091 1.07 1.0728 1.605 2.4508 1.605 4.1339v8.989h-3.792v-8.4341c0-.9063-.276-1.637-.83-2.1918-.535-.5549-1.255-.8323-2.158-.8323-.628 0-1.2.1295-1.716.3884-.499.2404-.913.5918-1.245 1.0542v10.0156z"/><path d="m199.283 28.5876v-1.1929c-.572.4623-1.209.8138-1.909 1.0542-.702.2219-1.43.3329-2.187.3329-1.015 0-1.974-.1942-2.877-.5826-.887-.3885-1.661-.9155-2.326-1.5814-.663-.6659-1.189-1.452-1.577-2.3583-.369-.9063-.552-1.8773-.552-2.9131 0-1.0357.193-2.0068.58-2.9131.388-.9062.914-1.6924 1.577-2.3582.665-.6659 1.448-1.1838 2.353-1.5537.922-.3884 1.9-.5826 2.933-.5826.7 0 1.383.1017 2.048.3052.682.1849 1.309.4624 1.881.8323v-.9433h3.792v14.4546zm-7.693-7.2412c0 1.1653.405 2.1548 1.218 2.9686.811.8139 1.807 1.2208 2.988 1.2208.7 0 1.337-.1203 1.909-.3607.591-.2404 1.098-.5826 1.522-1.0266v-5.632c-.405-.4254-.913-.7583-1.522-.9987-.59-.2405-1.226-.3607-1.909-.3607-1.199 0-2.205.4069-3.016 1.2207-.794.7953-1.19 1.7849-1.19 2.9686z"/><path d="m206.002 28.5862v-14.4546h3.792v1.1375c.554-.4624 1.163-.8138 1.826-1.0543.683-.2404 1.42-.3607 2.214-.3607 1.661 0 3.026.5364 4.096 1.6092s1.605 2.4507 1.605 4.1339v8.989h-3.792v-8.4342c0-.9062-.276-1.6369-.829-2.1917-.535-.5549-1.255-.8324-2.159-.8324-.628 0-1.2.1295-1.716.3885-.498.2404-.913.5918-1.245 1.0542v10.0156z"/><path d="m229.047 28.6692c-1.015 0-1.974-.1942-2.878-.5825-.885-.3884-1.661-.9156-2.325-1.5814-.645-.6659-1.161-1.4428-1.55-2.3305-.368-.9063-.552-1.8773-.552-2.9132 0-1.0173.193-1.9698.58-2.8576.388-.9063.914-1.6924 1.577-2.3582.665-.6659 1.448-1.1838 2.353-1.5537.904-.3884 1.872-.5826 2.906-.5826.718 0 1.401.1017 2.047.3052.665.2034 1.282.4901 1.854.86v-.9433h3.736v14.4546c0 1.9052-.618 3.3756-1.855 4.4113-1.217 1.0358-2.979 1.5537-5.284 1.5537-1.108 0-2.178-.111-3.211-.333-1.014-.2218-1.946-.5455-2.794-.971l1.328-2.9685c.794.3883 1.568.6751 2.325.86.756.2035 1.513.3052 2.268.3052 1.126 0 1.974-.2497 2.546-.749.591-.481.885-1.1931.885-2.1363v-1.1931c-.572.4255-1.198.7491-1.881.9711-.664.222-1.355.3328-2.075.3328zm-3.57-7.4076c0 1.1653.396 2.1549 1.19 2.9687.811.8138 1.798 1.2207 2.961 1.2207.683 0 1.309-.111 1.881-.333.572-.2404 1.07-.5641 1.494-.971v-5.6875c-.405-.4069-.903-.7214-1.494-.9433-.59-.2405-1.207-.3607-1.853-.3607-1.163 0-2.15.3977-2.961 1.193-.813.7954-1.218 1.7664-1.218 2.9131z"/><path d="m252.704 26.7828c-.885.7213-1.798 1.2485-2.74 1.5813-.922.333-1.955.4995-3.099.4995-1.087 0-2.111-.1943-3.07-.5827-.942-.3883-1.763-.9155-2.464-1.5814-.682-.6658-1.226-1.4519-1.632-2.3581-.388-.9249-.581-1.9145-.581-2.9687 0-1.0358.183-2.0069.553-2.9131.387-.9249.913-1.7202 1.578-2.386.663-.6844 1.448-1.2207 2.351-1.6092.923-.3884 1.9-.5826 2.933-.5826 1.015 0 1.956.2035 2.824.6104.885.3884 1.64.9248 2.268 1.6091.646.6844 1.144 1.5075 1.494 2.4693.369.9432.554 1.9697.554 3.0795v.9988h-10.737c.259.9063.757 1.637 1.494 2.1918.739.5549 1.605.8323 2.601.8323.628 0 1.218-.1018 1.772-.3052.554-.2035 1.024-.4901 1.411-.8601zm-6.254-9.7659c-.867 0-1.614.2681-2.241.8046-.627.5179-1.06 1.2207-1.301 2.1085h7.056c-.239-.8508-.681-1.5444-1.327-2.0808-.628-.5549-1.356-.8323-2.187-.8323z"/></g><path d="m68 28.5876v-19.42091h4.0124v15.86951h10.5984v3.5514z" fill="#bef102"/><path d="m97.4288 26.7828c-.8856.7214-1.7988 1.2484-2.7396 1.5814-.9224.3329-1.9555.4994-3.0992.4994-1.0885 0-2.1124-.1942-3.0717-.5825-.9408-.3885-1.7617-.9156-2.4627-1.5815-.6827-.6658-1.2269-1.452-1.6327-2.3582-.3874-.9249-.5812-1.9143-.5812-2.9687 0-1.0357.1846-2.0067.5536-2.913.3873-.9249.9132-1.7202 1.5772-2.3861.6641-.6843 1.4482-1.2207 2.3521-1.6091.9224-.3884 1.9002-.5826 2.9332-.5826 1.0147 0 1.9556.2034 2.8227.6103.8854.3884 1.6417.9248 2.269 1.6092.6457.6843 1.1437 1.5074 1.4942 2.4691.369.9434.5535 1.97.5535 3.0797v.9987h-10.7367c.2583.9063.7563 1.637 1.4943 2.1918.7379.5549 1.605.8324 2.6011.8324.6273 0 1.2176-.1017 1.771-.3052.5535-.2034 1.0239-.4902 1.4114-.86zm-6.2539-9.7659c-.8671 0-1.6142.2683-2.2415.8046-.6273.5179-1.0607 1.2207-1.3005 2.1086h7.0563c-.2399-.8509-.6826-1.5445-1.3282-2.0808-.6273-.5549-1.3561-.8324-2.1861-.8324z" fill="#bef102"/><path d="m102.144 24.5097v-7.1858h-2.9614v-3.1905h2.9614v-3.69l3.791-.86005v4.55005h4.095v3.1905h-4.095v6.4089c0 .6844.147 1.1652.442 1.4427.296.2774.812.4161 1.55.4161.351 0 .683-.0184.996-.0554.314-.0555.655-.1481 1.024-.2775v3.1074c-.406.1294-.895.2311-1.467.3051-.571.0925-1.06.1387-1.466.1387-1.605 0-2.823-.3607-3.653-1.082-.812-.7398-1.217-1.8126-1.217-3.2182z" fill="#bef102"/><path d="m110.959 26.8676 1.882-2.5247c.849.5549 1.651.9711 2.408 1.2484.756.259 1.512.3885 2.269.3885.848 0 1.522-.1387 2.02-.4162.516-.2775.774-.6473.774-1.1097 0-.37-.147-.6659-.442-.8879-.277-.2218-.729-.3791-1.356-.4715l-2.767-.4162c-1.421-.222-2.509-.6844-3.266-1.3872-.738-.7029-1.106-1.637-1.106-2.8022 0-1.3872.544-2.4969 1.632-3.3293 1.089-.8323 2.546-1.2484 4.372-1.2484 1.052 0 2.076.1572 3.072.4716.996.2959 1.946.7398 2.85 1.3317l-1.826 2.4415c-.794-.4624-1.55-.8047-2.269-1.0265-.72-.2405-1.449-.3607-2.187-.3607-.682 0-1.235.1295-1.66.3884-.406.2589-.609.6011-.609 1.0265 0 .3884.148.6936.443.9156.314.2034.821.3514 1.522.4438l2.767.4162c1.402.2035 2.482.6659 3.238 1.3873.775.7213 1.162 1.6369 1.162 2.7466 0 .6843-.166 1.3225-.498 1.9143-.314.5734-.747 1.0728-1.301 1.4982-.553.4254-1.217.7584-1.992.9988s-1.614.3607-2.518.3607c-1.31 0-2.537-.1665-3.68-.4994-1.144-.3514-2.122-.8508-2.934-1.4982z" fill="#bef102"/><path clip-rule="evenodd" d="m24.5507.592444c-1.5336-.387019-3.138-.592444-4.7899-.592444-10.91359 0-19.7608 8.96745-19.7608 20.0294 0 10.5421 8.03526 19.1819 18.2366 19.9706.0025-.2525.0189-.5071.0502-.7626l.4382-3.5833c-8.0495-.5401-14.41355-7.3291-14.41355-15.6247 0-8.6484 6.91695-15.65936 15.44935-15.65936.8053 0 1.596.06244 2.368.1828z" fill="url(#a)" fill-rule="evenodd"/><path d="m37.3218 32.5382c1.5553.6244 3.2508.9676 5.0253.9676 7.5402 0 13.6529-6.1958 13.6529-13.8385 0-7.6428-6.1127-13.83844-13.6529-13.83844-1.1295 0-2.2269.13898-3.2763.40102l-.5891 4.81502c1.1779-.5433 2.4868-.846 3.8654-.846 5.1591 0 9.3414 4.2392 9.3414 9.4684 0 5.2294-4.1823 9.4684-9.3414 9.4684-.9385 0-1.8447-.1402-2.6993-.4012z" fill="url(#b)"/><path d="m40.6207 16.5338c.136-.2224-.0217-.5097-.2798-.5097h-7.8546c-.1979 0-.3512-.1758-.3269-.3749l1.7291-14.13717c.0435-.35538-.4207-.521314-.6068-.21694l-13.5948 22.23101c-.136.2225.0218.5097.28.5097h7.8546c.1979 0 .351.1758.3267.3749l-1.7289 14.1371c-.0435.3555.4205.5214.6066.2169z" fill="#bef102"/></g></svg>