<svg xmlns="http://www.w3.org/2000/svg" width="256" height="32" fill="none" xmlns:v="https://vecta.io/nano"><path d="M58.373 11.823l-4.038-4.17H48.82l-2.982 3.061v2.507l2.771 1.425h6.598l4.407 2.322v4.988l-4.302 4.433h-7.468l-4.698-4.829 1.636-1.715 4.038 4.17h5.516l2.982-3.061v-2.534l-2.692-1.399h-6.545L43.515 14.7V9.712l4.328-4.434h7.468l4.698 4.83-1.636 1.715h0zm16.014-4.17h-4.249v16.362h4.249v2.375h-10.82v-2.375h4.249V7.654h-4.249V5.278h10.82v2.375h0zm16.377 18.737h-11.77V5.279h11.77l4.328 4.433v12.245l-4.328 4.433zm2.006-15.676l-2.956-3.061h-8.498v16.362h8.498l2.956-3.061v-10.24h0zm7.331 15.676V5.279h16.099v2.375h-13.776v6.994h7.969v2.375h-7.969v6.993h13.776v2.375H100.1h0zm34.222-14.567l-4.038-4.17h-5.515l-2.982 3.061v2.507l2.771 1.425h6.598l4.407 2.322v4.988l-4.302 4.433h-7.468l-4.698-4.829 1.636-1.715 4.038 4.17h5.515l2.983-3.061v-2.534l-2.692-1.399h-6.545l-4.565-2.322V9.712l4.328-4.434h7.468l4.698 4.83-1.637 1.715h0zm19.629 14.567v-9.368h-11.453v9.368h-2.323V5.279h2.323v9.368h11.453V5.278h2.323v21.112h-2.323zm17.75-18.737h-4.249v16.362h4.249v2.375h-10.82v-2.375h4.249V7.654h-4.249V5.278h10.82v2.375h0zm6.929 0v6.994h7.97v2.375h-7.97v9.368h-2.322V5.279h16.097v2.375H178.63zm31.862 0h-6.887v18.737h-2.323V7.654h-6.888V5.278h16.098v2.375h0zm5.277 18.737v-3.8h2.613v3.8h-2.613zm22.482 0v-9.368h-11.454v9.368h-2.322V9.712l4.328-4.434h7.442l4.328 4.434v16.678h-2.322 0zm0-15.676l-2.956-3.061h-5.542l-2.956 3.061v3.932h11.454v-3.932zM256 7.654h-4.249v16.362H256v2.375h-10.82v-2.375h4.249V7.654h-4.249V5.278H256v2.375h0z" fill="#f2f2f2"/><path d="M26.102 3.786C23.241 1.34 19.599-.003 15.835 0 7.079 0 0 7.086 0 15.848a15.81 15.81 0 0 0 3.783 10.277L26.102 3.786z" fill="url(#A)"/><path d="M5.458 27.801a15.8 15.8 0 0 0 10.376 3.867c8.754 0 15.834-7.086 15.834-15.848a15.83 15.83 0 0 0-3.864-10.385L5.458 27.801h0z" fill="url(#B)"/><defs><linearGradient id="A" x1="21.208" y1="23.838" x2="5.421" y2="2.298" gradientUnits="userSpaceOnUse"><stop/></linearGradient><linearGradient id="B" x1="26.754" y1="29.373" x2="10.901" y2="7.744" gradientUnits="userSpaceOnUse"><stop/></linearGradient></defs></svg>