<svg xmlns="http://www.w3.org/2000/svg" width="150" height="29" fill="none" xmlns:v="https://vecta.io/nano"><path d="M3.958 17.248c.084.93.336 1.607.758 2.029.673.845 1.853 1.268 3.453 1.268 1.01 0 1.768-.085 2.357-.338 1.179-.422 1.769-1.183 1.769-2.283 0-.676-.253-1.183-.842-1.522s-1.516-.676-2.694-.93l-2.105-.507c-2.105-.507-3.537-1.014-4.294-1.522C1.01 12.513.337 11.076.337 9.131A5.96 5.96 0 0 1 2.273 4.65c1.264-1.268 3.2-1.86 5.726-1.86 2.105 0 3.874.591 5.389 1.691s2.273 2.705 2.357 4.82h-3.957c-.085-1.184-.59-2.029-1.6-2.537-.674-.338-1.431-.507-2.442-.507-1.095 0-1.937.253-2.526.676-.757.423-1.01 1.015-1.01 1.776 0 .676.337 1.268.926 1.607.421.254 1.263.507 2.61.845l3.452.846c1.516.338 2.61.846 3.368 1.437 1.179.93 1.768 2.283 1.768 4.059 0 1.86-.674 3.382-2.105 4.566s-3.368 1.776-5.894 1.776c-2.61 0-4.631-.592-6.147-1.776C.758 20.884 0 19.278 0 17.248h3.958zm13.641-5.75v-2.79h2.021V4.65h3.789v4.143h2.357v2.79h-2.357v7.779c0 .591.084 1.014.252 1.099.169.169.589.254 1.431.254h.337.421v2.875l-1.853.084c-1.853.085-3.031-.254-3.705-.93-.421-.422-.673-1.099-.673-2.029v-9.216h-2.021zm16.504-.085c-.926 0-1.6.254-2.105.846s-.758 1.353-.926 2.283h5.978c0-1.015-.337-1.861-.926-2.368-.505-.507-1.179-.761-2.021-.761zm0-3.213c1.263 0 2.358.254 3.284.676 1.011.423 1.768 1.184 2.441 2.199.59.845.926 1.86 1.095 3.044a15.42 15.42 0 0 1 .085 2.959H30.903c.084 1.522.505 2.537 1.432 3.128.505.338 1.179.592 1.937.592s1.431-.254 1.936-.677c.253-.253.505-.591.758-1.014h3.957c-.084.845-.589 1.775-1.347 2.706-1.263 1.437-3.032 2.113-5.305 2.113-1.853 0-3.537-.591-4.968-1.776s-2.105-3.213-2.105-5.918c0-2.536.673-4.481 1.937-5.918s2.863-2.114 4.968-2.114zm17.682 7.948c-.252.17-.505.254-.757.338s-.589.169-1.01.254l-.842.169c-.842.169-1.431.338-1.768.507-.589.339-.926.931-.926 1.607s.168 1.099.505 1.437c.337.254.842.423 1.347.423.842 0 1.6-.254 2.273-.761s1.095-1.352 1.095-2.706v-1.268h.084zm-2.357-1.776c.674-.084 1.179-.169 1.516-.338.589-.254.841-.592.841-1.099 0-.591-.168-1.014-.589-1.268s-1.011-.338-1.852-.338c-.926 0-1.516.254-1.937.676-.253.338-.421.761-.505 1.353h-3.705c.084-1.268.421-2.368 1.095-3.213 1.011-1.268 2.779-1.945 5.221-1.945 1.6 0 3.032.338 4.294.93 1.264.677 1.853 1.861 1.853 3.636v6.764 1.691c0 .507.084.846.252 1.015.084.169.337.338.589.422v.592h-4.21l-.252-.846c-.084-.254-.084-.591-.084-.93-.505.592-1.179 1.099-1.853 1.437-.842.507-1.768.677-2.779.677-1.348 0-2.442-.423-3.284-1.184s-1.263-1.86-1.263-3.213c0-1.776.673-3.128 2.105-3.974.757-.422 1.853-.761 3.368-.93l1.179.084zm13.557 8.963H59.11V3.382h3.874v19.955zm2.273-11.837v-2.79h2.021V4.65h3.789v4.143h2.358v2.79h-2.358v7.779c0 .591.084 1.014.253 1.099.168.169.589.254 1.431.254h.337.421v2.875l-1.853.084c-1.852.085-3.031-.254-3.705-.93-.421-.422-.673-1.099-.673-2.029v-9.216h-2.021zm18.777-3.298c.926 0 1.768.17 2.442.507.757.338 1.347.761 1.852 1.437.421.592.674 1.1.758 1.692s.168 1.522.168 2.874v8.709h-3.958v-9.047c0-.76-.168-1.437-.421-1.945-.337-.676-1.01-1.014-2.021-1.014s-1.769.338-2.274 1.015-.758 1.692-.758 2.959v8.033h-3.873V3.466h3.873v7.102c.59-.846 1.179-1.438 1.937-1.776.674-.422 1.516-.592 2.273-.592z" fill="#fff"/><path d="M149.611 13.19L139.928.592A1.61 1.61 0 0 0 138.749 0H94.121v28.494h45.133a1.2 1.2 0 0 0 1.011-.507l9.431-12.513c.42-.676.42-1.606-.085-2.283zm-34.355 9.977H100.1V4.82h14.819v4.65h-8.757v2.114h7.747v4.481h-7.747v2.367h9.094v4.735zm14.652 0l-3.116-4.904-3.115 4.904h-6.99l6.569-9.216-6.4-9.047h6.905l3.115 4.651 3.032-4.651h6.651l-6.315 8.878 6.736 9.47h-7.072v-.085z" fill="#fdf11e"/></svg>