<svg width="526" height="108" fill="none" xmlns="http://www.w3.org/2000/svg"><path d="M526 14h-19.999l1.856 50.77h16.286L526 14Zm-10 75c5.25 0 9.928-4.471 10-10.096-.072-5.481-4.75-9.952-10-9.952-5.536 0-10.072 4.471-9.999 9.952C505.928 84.529 510.464 89 516 89ZM162.145 36.857h18.862C180.936 22.5 169.944 13 152.359 13c-17.267 0-29.466 9.357-29.358 23.286-.036 11.428 7.836 17.785 20.706 20.571l7.234 1.572c8.083 1.785 10.849 3.821 10.92 7.142-.071 3.608-3.333 6.143-9.645 6.143-7.551 0-12.019-3.571-12.338-10.285h-16.642C123.308 79.785 133.567 88 152.5 88c18.402 0 29.429-8 29.5-22.429-.071-11.142-6.666-18.964-22.692-22.428l-5.956-1.286c-6.879-1.464-9.964-3.5-9.786-7 .035-3.214 2.694-5.571 8.793-5.571 6.382 0 9.395 2.821 9.786 7.571ZM196.873 87h21.534l7.804-29.505h.578L234.593 87h21.534L270 32h-19.944l-6.069 33.23h-.434L236.183 32h-19.366l-7.081 33.516h-.434L202.944 32H183l13.873 55ZM286.002 88c7.202 0 12.639-2.41 15.987-8.506h.433v7.655H321V49.863C321 39.797 311.315 32 295.509 32c-16.527 0-24.664 8.506-25.349 18.43h18.292c.467-3.367 2.988-4.962 6.769-4.962 3.456 0 5.904 1.56 5.904 4.395v.142c0 3.154-3.528 4.147-12.818 4.82C276.894 55.641 268 60.177 268 72.121 268 82.968 275.418 88 286.002 88Zm6.482-12.334c-3.385 0-5.761-1.63-5.761-4.679 0-2.8 2.017-4.962 6.625-5.67 3.169-.497 5.833-1.135 7.921-1.985v4.536c0 4.962-4.285 7.798-8.785 7.798ZM325 108h19.764V78.484h.286c2.292 5.561 7.591 9.696 15.325 9.696 11.743 0 21.625-9.126 21.625-28.09C382 40.27 371.402 32 360.517 32c-8.162 0-13.319 4.705-15.467 10.267h-.429v-9.554H325V108Zm19.333-47.91c0-8.128 3.295-12.976 8.737-12.976 5.443 0 8.592 4.849 8.592 12.976 0 8.128-3.149 12.976-8.592 12.976-5.442 0-8.737-4.991-8.737-12.976ZM421.031 63.095c.037 5.47-3.147 8.782-8.104 8.782-5.027 0-7.922-3.311-7.958-8.782V32H385v35.27c.036 12.093 7.705 20.73 19.391 20.73 8.284 0 14.651-4.175 17.074-11.229h.579v10.51H441V32h-19.969v31.095ZM446 87h49V71.961h-23.118v-.287l22.246-27.643V32h-47.256v15.039h23.555v.286L446 76.115V87Z" fill="#02C076"/><path fill-rule="evenodd" clip-rule="evenodd" d="M66.34.647c2.913-1.765 6.644.284 6.716 3.689l.44 20.635 21.378 3.685c3.356.579 4.827 4.573 2.648 7.19L83.296 52.933l10.803 8.68c2.655 2.133 2.005 6.34-1.17 7.572l-19.522 7.58L75.8 88.83c.663 3.34-2.539 6.145-5.763 5.049l-13.926-4.736c-15.883 7.713-34.912 3.714-46.386-9.373 16.994 4.907 30.616-.222 37.081-5.523a3.686 3.686 0 0 0-4.674-5.702c-5.367 4.4-20.026 10.185-39.001.75-7.532-17.608-1.154-38.528 15.697-48.74a38.9 38.9 0 0 1 23.748-5.505L66.341.647ZM34.745 45.392a7.373 7.373 0 1 1-7.643-12.61 7.373 7.373 0 0 1 7.643 12.61Z" fill="#02C076"/></svg>
